<svg width="28" height="28" viewBox="0 0 28 28" fill="none" xmlns="http://www.w3.org/2000/svg">
<g id="Case">
<path id="Vector" d="M23.3332 19.8334H20.9998V10.5H6.99984V19.8334H4.6665V10.5H1.1665V21C1.1665 22.2834 2.2165 23.3334 3.49984 23.3334H5.83317L6.99984 22.1667H20.9998L22.1665 23.3334H24.4998C25.7832 23.3334 26.8332 22.2834 26.8332 21V10.5H23.3332V19.8334ZM15.1665 19.8334H12.8332V15.1667H15.1665V19.8334ZM24.4998 4.66669H18.6665L17.4998 5.83335H10.4998L9.33317 4.66669H3.49984C2.2165 4.66669 1.1665 5.71669 1.1665 7.00002V9.33335H4.6665V5.83335H6.99984V9.33335H20.9998V5.83335H23.3332V9.33335H26.8332V7.00002C26.8332 5.71669 25.7832 4.66669 24.4998 4.66669Z" fill="currentColor"/>
</g>
</svg>
