<svg width="22" height="26" viewBox="0 0 22 26" fill="none" xmlns="http://www.w3.org/2000/svg">
<g id="icn - Balance">
<g id="Vector" filter="url(#filter0_d_137_1358)">
<path d="M6.05 15.0838C6.05 14.135 6.20125 13.2137 6.49 12.3612C2.87375 12.265 0 10.78 0 8.9375V11.6875C0 13.4475 2.65375 14.8775 6.05 15.0838ZM0 13.0625V15.8125C0 17.71 3.08 19.25 6.875 19.25C6.93 19.25 6.985 19.25 7.05375 19.25C6.61375 18.3975 6.31125 17.4625 6.16 16.4725C2.70875 16.2937 0 14.85 0 13.0763L0 13.0625ZM6.875 6.875C10.67 6.875 13.75 5.335 13.75 3.4375C13.75 1.54 10.67 0 6.875 0C3.08 0 0 1.54 0 3.4375C0 5.335 3.08 6.875 6.875 6.875ZM9.5425 7.975C8.7175 8.15375 7.81 8.25 6.875 8.25C3.08 8.25 0 6.71 0 4.8125V7.5625C0 9.46 3.08 11 6.875 11C6.94375 11 6.99875 11 7.05375 11C7.65875 9.8175 8.51125 8.8 9.5425 7.98875V7.975ZM15.125 8.25C11.33 8.25 8.25 11.33 8.25 15.125C8.25 18.92 11.33 22 15.125 22C18.92 22 22 18.92 22 15.125C22 11.33 18.92 8.25 15.125 8.25ZM16.8575 17.5037C16.5963 17.82 16.2525 18.04 15.8537 18.15C15.675 18.1912 15.6063 18.2875 15.6063 18.4663C15.6063 18.645 15.6063 18.8237 15.6063 19.0025C15.6063 19.1675 15.5238 19.25 15.3725 19.25C15.2763 19.25 15.1663 19.25 15.07 19.25C14.9875 19.25 14.8913 19.25 14.8088 19.25C14.6438 19.25 14.5613 19.1538 14.5613 18.9888C14.5613 18.865 14.5613 18.7275 14.5613 18.6038C14.5613 18.315 14.5612 18.3013 14.2725 18.26C13.915 18.205 13.5713 18.1225 13.255 17.9712C13.0075 17.8475 12.98 17.7787 13.0487 17.5175C13.1037 17.325 13.1587 17.1188 13.2137 16.9263C13.255 16.7887 13.2962 16.72 13.3787 16.72C13.42 16.72 13.475 16.7475 13.5575 16.7887C13.915 16.9813 14.3 17.0775 14.6987 17.1325C14.7675 17.1325 14.8363 17.1325 14.905 17.1325C15.0975 17.1325 15.2762 17.0912 15.4412 17.0225C15.8812 16.83 15.95 16.3213 15.5787 16.005C15.455 15.895 15.3038 15.8263 15.1525 15.7575C14.7675 15.5925 14.355 15.455 13.9975 15.235C13.4062 14.8775 13.0213 14.3962 13.0763 13.6675C13.1313 12.8425 13.585 12.3338 14.3413 12.0588C14.6575 11.9488 14.6575 11.9488 14.6575 11.6325C14.6575 11.5225 14.6575 11.4125 14.6575 11.3025C14.6575 11.055 14.6987 11.0138 14.9462 11.0138H15.235C15.7025 11.0138 15.7025 11.0275 15.7025 11.5363C15.7025 11.7838 15.8262 11.9258 16.0737 11.9625C16.3487 12.0037 16.6238 12.0863 16.8713 12.1962C17.0088 12.265 17.0637 12.3613 17.0225 12.5125C16.9538 12.7325 16.8988 12.9663 16.83 13.1863C16.7887 13.3238 16.7475 13.3787 16.665 13.3787C16.6238 13.3787 16.5688 13.365 16.5 13.3237C16.1425 13.145 15.7713 13.0625 15.3725 13.0625C15.3175 13.0625 15.2762 13.0625 15.2212 13.0625C15.1112 13.0625 14.9875 13.09 14.8775 13.1313C14.4925 13.2963 14.4237 13.7225 14.7537 13.9838C14.9187 14.1213 15.1112 14.2175 15.3038 14.3C15.6475 14.4375 15.9912 14.575 16.3075 14.7537C17.325 15.3175 17.6138 16.6237 16.885 17.5037H16.8575Z" fill="#FFE500"/>
</g>
</g>
<defs>
<filter id="filter0_d_137_1358" x="0" y="0" width="22" height="26" filterUnits="userSpaceOnUse" color-interpolation-filters="sRGB">
<feFlood flood-opacity="0" result="BackgroundImageFix"/>
<feColorMatrix in="SourceAlpha" type="matrix" values="0 0 0 0 0 0 0 0 0 0 0 0 0 0 0 0 0 0 127 0" result="hardAlpha"/>
<feOffset dy="4"/>
<feComposite in2="hardAlpha" operator="out"/>
<feColorMatrix type="matrix" values="0 0 0 0 0 0 0 0 0 0 0 0 0 0 0 0 0 0 0.25 0"/>
<feBlend mode="normal" in2="BackgroundImageFix" result="effect1_dropShadow_137_1358"/>
<feBlend mode="normal" in="SourceGraphic" in2="effect1_dropShadow_137_1358" result="shape"/>
</filter>
</defs>
</svg>
