<svg width="16" height="16" viewBox="0 0 16 16" fill="none" xmlns="http://www.w3.org/2000/svg">
<g id="dice 1" clip-path="url(#clip0_129_1238)">
<g id="Group">
<g id="Group_2">
<path id="Vector" d="M14.9556 7.63989H8.68897C8.56991 7.63989 8.45709 7.66427 8.35056 7.70117L10.1101 5.94164C10.3072 5.74458 10.4151 5.48208 10.4151 5.20289C10.4151 4.92367 10.3071 4.66117 10.1101 4.46414L5.94631 0.300331C5.55291 -0.0937627 4.86219 -0.0937627 4.46878 0.300331L0.304969 4.46411C0.107937 4.66117 0 4.92367 0 5.20289C0 5.48211 0.107937 5.74461 0.304969 5.94164L4.46878 10.1055C4.66584 10.3025 4.92763 10.4104 5.20753 10.4104C5.48744 10.4104 5.74925 10.3025 5.94628 10.1055L7.70581 8.34592C7.66891 8.45246 7.64453 8.56527 7.64453 8.68433V14.9509C7.64453 15.5268 8.11312 15.9954 8.68897 15.9954H14.9556C15.5314 15.9954 16 15.5268 16 14.9509V8.68433C16 8.10849 15.5314 7.63989 14.9556 7.63989ZM5.69981 8.4803C5.56403 8.61608 5.38578 8.68361 5.20753 8.68361C5.02928 8.68361 4.85103 8.61608 4.71525 8.4803C4.443 8.20874 4.443 7.7673 4.71525 7.49574C4.98681 7.22349 5.42825 7.22349 5.69981 7.49574C5.97206 7.7673 5.97206 8.20877 5.69981 8.4803ZM5.69981 5.69517C5.56403 5.83096 5.38578 5.89849 5.20753 5.89849C5.02928 5.89849 4.85103 5.83096 4.71525 5.69517C4.443 5.42361 4.443 4.98217 4.71525 4.71061C4.98681 4.43836 5.42825 4.43836 5.69981 4.71061C5.97206 4.98217 5.97206 5.42361 5.69981 5.69517ZM5.69981 2.91002C5.56403 3.0458 5.38578 3.11333 5.20753 3.11333C5.02928 3.11333 4.85103 3.0458 4.71525 2.91002C4.443 2.63846 4.443 2.19702 4.71525 1.92546C4.98681 1.65321 5.42825 1.65321 5.69981 1.92546C5.97206 2.19702 5.97206 2.63846 5.69981 2.91002ZM9.73341 14.6028C9.34975 14.6028 9.03712 14.2908 9.03712 13.9065C9.03712 13.5221 9.34975 13.2102 9.73341 13.2102C10.1171 13.2102 10.4297 13.5221 10.4297 13.9065C10.4297 14.2908 10.1171 14.6028 9.73341 14.6028ZM9.73341 10.425C9.34975 10.425 9.03712 10.1131 9.03712 9.72877C9.03712 9.34442 9.34975 9.03249 9.73341 9.03249C10.1171 9.03249 10.4297 9.34442 10.4297 9.72877C10.4297 10.1131 10.1171 10.425 9.73341 10.425ZM11.8223 12.5139C11.4386 12.5139 11.126 12.202 11.126 11.8176C11.126 11.4333 11.4386 11.1214 11.8223 11.1214C12.2059 11.1214 12.5186 11.4333 12.5186 11.8176C12.5186 12.202 12.2059 12.5139 11.8223 12.5139ZM13.9111 14.6028C13.5275 14.6028 13.2148 14.2908 13.2148 13.9065C13.2148 13.5221 13.5275 13.2102 13.9111 13.2102C14.2948 13.2102 14.6074 13.5221 14.6074 13.9065C14.6074 14.2908 14.2948 14.6028 13.9111 14.6028ZM13.9111 10.425C13.5275 10.425 13.2148 10.1131 13.2148 9.72877C13.2148 9.34442 13.5275 9.03249 13.9111 9.03249C14.2948 9.03249 14.6074 9.34442 14.6074 9.72877C14.6074 10.1131 14.2948 10.425 13.9111 10.425Z" fill="#98A0C3"/>
</g>
</g>
</g>
<defs>
<clipPath id="clip0_129_1238">
<rect width="16" height="16" fill="white"/>
</clipPath>
</defs>
</svg>
