<svg width="28" height="28" viewBox="0 0 28 28" fill="none" xmlns="http://www.w3.org/2000/svg">
<g id="Gamepad">
<path id="Vector" d="M26.7776 18.2853L25.4007 10.0358C25.1545 8.53412 24.3818 7.16918 23.2209 6.18539C22.06 5.2016 20.5867 4.66323 19.0651 4.6667H8.93278C7.41142 4.66367 5.93864 5.20223 4.77812 6.18598C3.6176 7.16973 2.84512 8.53443 2.59897 10.0358L1.22205 18.2853C1.06597 19.2205 1.2412 20.1808 1.71749 21.0006C2.19378 21.8204 2.94127 22.4483 3.831 22.7759C4.72073 23.1035 5.69689 23.1102 6.59108 22.795C7.48526 22.4798 8.24139 21.8624 8.729 21.0493L10.295 18.4359H17.7028L19.2707 21.0493C19.7583 21.8624 20.5144 22.4798 21.4086 22.795C22.3028 23.1102 23.2789 23.1035 24.1687 22.7759C25.0584 22.4483 25.8059 21.8204 26.2822 21.0006C26.7585 20.1808 26.9337 19.2205 26.7776 18.2853ZM19.5066 9.25643C19.6881 9.25643 19.8656 9.31026 20.0166 9.41113C20.1675 9.51199 20.2852 9.65535 20.3547 9.82309C20.4241 9.99082 20.4423 10.1754 20.4069 10.3535C20.3715 10.5315 20.284 10.6951 20.1557 10.8235C20.0273 10.9518 19.8637 11.0393 19.6857 11.0747C19.5076 11.1101 19.323 11.0919 19.1553 11.0224C18.9876 10.953 18.8442 10.8353 18.7433 10.6844C18.6425 10.5334 18.5886 10.3559 18.5886 10.1744C18.5886 9.93092 18.6854 9.69743 18.8575 9.52529C19.0296 9.35314 19.2631 9.25643 19.5066 9.25643ZM10.3271 12.9282H9.4092V13.8461C9.4092 14.0896 9.31249 14.3231 9.14034 14.4952C8.96819 14.6674 8.73471 14.7641 8.49125 14.7641C8.2478 14.7641 8.01432 14.6674 7.84217 14.4952C7.67002 14.3231 7.57331 14.0896 7.57331 13.8461V12.9282H6.65536C6.41191 12.9282 6.17843 12.8315 6.00628 12.6593C5.83413 12.4872 5.73742 12.2537 5.73742 12.0103C5.73742 11.7668 5.83413 11.5333 6.00628 11.3612C6.17843 11.189 6.41191 11.0923 6.65536 11.0923H7.57331V10.1744C7.57331 9.93092 7.67002 9.69743 7.84217 9.52529C8.01432 9.35314 8.2478 9.25643 8.49125 9.25643C8.73471 9.25643 8.96819 9.35314 9.14034 9.52529C9.31249 9.69743 9.4092 9.93092 9.4092 10.1744V11.0923H10.3271C10.5706 11.0923 10.8041 11.189 10.9762 11.3612C11.1484 11.5333 11.2451 11.7668 11.2451 12.0103C11.2451 12.2537 11.1484 12.4872 10.9762 12.6593C10.8041 12.8315 10.5706 12.9282 10.3271 12.9282ZM17.6707 12.9282C17.4891 12.9282 17.3117 12.8744 17.1607 12.7735C17.0098 12.6726 16.8921 12.5293 16.8226 12.3615C16.7531 12.1938 16.735 12.0092 16.7704 11.8312C16.8058 11.6531 16.8932 11.4896 17.0216 11.3612C17.15 11.2328 17.3135 11.1454 17.4916 11.11C17.6697 11.0745 17.8542 11.0927 18.022 11.1622C18.1897 11.2317 18.3331 11.3493 18.4339 11.5003C18.5348 11.6512 18.5886 11.8287 18.5886 12.0103C18.5886 12.2537 18.4919 12.4872 18.3198 12.6593C18.1476 12.8315 17.9142 12.9282 17.6707 12.9282ZM19.5066 14.7641C19.325 14.7641 19.1476 14.7103 18.9966 14.6094C18.8456 14.5085 18.728 14.3652 18.6585 14.1974C18.589 14.0297 18.5709 13.8451 18.6063 13.6671C18.6417 13.489 18.7291 13.3254 18.8575 13.1971C18.9859 13.0687 19.1494 12.9813 19.3275 12.9458C19.5056 12.9104 19.6901 12.9286 19.8579 12.9981C20.0256 13.0676 20.169 13.1852 20.2698 13.3362C20.3707 13.4871 20.4245 13.6646 20.4245 13.8461C20.4245 14.0896 20.3278 14.3231 20.1557 14.4952C19.9835 14.6674 19.75 14.7641 19.5066 14.7641ZM21.3425 12.9282C21.1609 12.9282 20.9834 12.8744 20.8325 12.7735C20.6815 12.6726 20.5639 12.5293 20.4944 12.3615C20.4249 12.1938 20.4067 12.0092 20.4422 11.8312C20.4776 11.6531 20.565 11.4896 20.6934 11.3612C20.8218 11.2328 20.9853 11.1454 21.1634 11.11C21.3415 11.0745 21.526 11.0927 21.6938 11.1622C21.8615 11.2317 22.0049 11.3493 22.1057 11.5003C22.2066 11.6512 22.2604 11.8287 22.2604 12.0103C22.2604 12.2537 22.1637 12.4872 21.9916 12.6593C21.8194 12.8315 21.5859 12.9282 21.3425 12.9282Z" fill="currentColor"/>
</g>
</svg>
