<svg width="28" height="28" viewBox="0 0 28 28" fill="none" xmlns="http://www.w3.org/2000/svg">
<g id="Medal">
<path id="Vector" d="M14.0002 18.6666C18.5152 18.6666 22.1668 15.015 22.1668 10.5C22.1668 5.98498 18.5152 2.33331 14.0002 2.33331C9.48516 2.33331 5.8335 5.98498 5.8335 10.5C5.8335 15.015 9.48516 18.6666 14.0002 18.6666ZM10.5235 9.63665C10.6285 9.30998 11.0602 9.20498 11.9118 9.01831L12.1335 8.97165C12.3785 8.91331 12.4952 8.88998 12.6002 8.80831C12.6935 8.73831 12.7635 8.62165 12.8918 8.39998L13.0085 8.18998C13.4518 7.39665 13.6735 6.99998 14.0002 6.99998C14.3268 6.99998 14.5485 7.39665 14.9918 8.18998L15.1085 8.39998C15.2368 8.62165 15.2952 8.73831 15.4002 8.80831C15.4935 8.87831 15.6218 8.91331 15.8668 8.97165L16.0885 9.01831C16.9518 9.21665 17.3835 9.30998 17.4768 9.63665C17.5818 9.96331 17.2902 10.3133 16.6952 10.99L16.5435 11.165C16.3802 11.3633 16.2985 11.4566 16.2518 11.5733C16.2168 11.69 16.2285 11.8183 16.2518 12.0866L16.2752 12.32C16.3685 13.23 16.4035 13.6966 16.1352 13.895C15.8668 14.0933 15.4585 13.9183 14.6535 13.545L14.4435 13.4516C14.2102 13.3466 14.1052 13.2883 13.9768 13.2883C13.8485 13.2883 13.7435 13.3466 13.5102 13.4516L13.3002 13.545C12.4952 13.9183 12.0868 14.105 11.8185 13.895C11.5502 13.6966 11.5968 13.23 11.6785 12.32L11.7018 12.0866C11.7252 11.83 11.7368 11.7016 11.7018 11.5733C11.6668 11.4566 11.5852 11.3516 11.4102 11.165L11.2585 10.99C10.6752 10.3016 10.3835 9.96331 10.4768 9.63665H10.5235ZM19.7285 18.5966C18.1068 19.74 16.1352 20.4166 14.0002 20.4166C11.8652 20.4166 9.8935 19.74 8.27183 18.5966L7.8285 20.2066C7.0935 22.8783 6.73183 24.22 7.22183 24.955C7.39683 25.2116 7.6185 25.4216 7.88683 25.55C8.64516 25.935 9.8235 25.3283 12.1802 24.1033C12.9618 23.695 13.3585 23.4966 13.7668 23.45C13.9185 23.4383 14.0818 23.4383 14.2335 23.45C14.6535 23.4966 15.0385 23.695 15.8202 24.1033C18.1768 25.3283 19.3435 25.9466 20.1135 25.55C20.3818 25.41 20.6152 25.2116 20.7785 24.955C21.2685 24.22 20.9068 22.89 20.1718 20.2066L19.7285 18.5966Z" fill="currentColor"/>
</g>
</svg>
