<svg width="24" height="24" viewBox="0 0 28 28" fill="none" xmlns="http://www.w3.org/2000/svg">
<g id="Podium" clip-path="url(#clip0_2041_215)">
<path id="Vector" d="M19.3083 3.95501L16.03 3.47668L14.56 0.501676C14.4083 0.186676 14.0933 -0.0116577 13.7433 -0.0116577C13.3933 -0.0116577 13.0783 0.186676 12.9267 0.501676L11.4567 3.47668L8.17833 3.95501C7.82833 4.00168 7.54833 4.24668 7.44333 4.57334C7.33833 4.90001 7.42 5.27334 7.67667 5.50668L10.0567 7.81668L9.49667 11.0833C9.43833 11.4217 9.57833 11.7717 9.85833 11.9817C10.1383 12.1917 10.5117 12.215 10.8267 12.0517L13.7667 10.5117L16.695 12.0517C17.01 12.215 17.3833 12.18 17.6633 11.9817C17.9433 11.7717 18.0833 11.4333 18.025 11.0833L17.465 7.81668L19.8333 5.50668C20.0783 5.26168 20.1717 4.90001 20.0667 4.57334C19.9617 4.24668 19.67 4.00168 19.3317 3.95501H19.3083ZM17.4067 13.9533H10.08C9.57833 13.9533 9.15833 14.3617 9.15833 14.875V28H18.3167V14.875C18.3167 14.3733 17.9083 13.9533 17.395 13.9533H17.4067ZM0 18.5383V27.2767C0 27.6733 0.326667 28 0.723333 28H7.32667V17.6167H0.921667C0.42 17.6167 0 18.025 0 18.5383ZM26.565 21.28H20.1483V28H26.7517C27.1483 28 27.475 27.6733 27.475 27.2767V22.2017C27.475 21.7 27.0667 21.28 26.5533 21.28H26.565Z" fill="currentColor"/>
</g>
<defs>
<clipPath id="clip0_2041_215">
<rect width="28" height="28" fill="currentColor"/>
</clipPath>
</defs>
</svg>
