<svg width="24" height="24" viewBox="0 0 20 20" fill="none" xmlns="http://www.w3.org/2000/svg">
<g id="send 1" clip-path="url(#clip0_121_424)">
<path id="Vector" d="M18.4176 8.80131L2.29399 0.936113C2.15533 0.868471 2.00306 0.833313 1.84877 0.833313C1.28792 0.833313 0.833252 1.28798 0.833252 1.84883V1.87814C0.833252 2.0144 0.84996 2.15016 0.88301 2.28236L2.42965 8.4689C2.47189 8.6379 2.61477 8.76273 2.78787 8.78198L9.58584 9.53731C9.82159 9.56348 9.99992 9.76273 9.99992 9.99998C9.99992 10.2372 9.82159 10.4365 9.58584 10.4626L2.78787 11.218C2.61477 11.2372 2.47189 11.3621 2.42965 11.5311L0.88301 17.7176C0.84996 17.8498 0.833252 17.9856 0.833252 18.1218V18.1511C0.833252 18.712 1.28792 19.1666 1.84877 19.1666C2.00306 19.1666 2.15533 19.1315 2.29399 19.0638L18.4176 11.1986C18.8758 10.9751 19.1666 10.5099 19.1666 9.99998C19.1666 9.49006 18.8758 9.02481 18.4176 8.80131Z" fill="currentColor" />
</g>
<defs>
<clipPath id="clip0_121_424">
<rect width="24" height="24" fill="currentColor"/>
</clipPath>
</defs>
</svg>
