<svg width="28" height="28" viewBox="0 0 28 28" fill="none" xmlns="http://www.w3.org/2000/svg">
<g id="Wallet">
<path id="Vector" d="M26.8171 7.36822C26.8171 6.02776 26.3041 4.75268 25.3743 3.80455C24.4445 2.85642 23.194 2.33331 21.8794 2.33331H6.10425C4.78966 2.33331 3.53919 2.85642 2.60935 3.80455C1.67952 4.75268 1.1665 6.02776 1.1665 7.36822V19.4651C1.1665 20.8055 1.67952 22.0806 2.60935 23.0287C3.53919 23.9769 4.78966 24.5 6.10425 24.5H21.8954C23.21 24.5 24.4605 23.9769 25.3903 23.0287C26.3202 22.0806 26.8332 20.8055 26.8332 19.4651V18.4516H21.8954C20.5808 18.4516 19.3304 17.9284 18.4005 16.9803C17.4707 16.0322 16.9577 14.7571 16.9577 13.4166C16.9577 12.0762 17.4707 10.8011 18.4005 9.85298C19.3304 8.90485 20.5808 8.38174 21.8954 8.38174H26.8332V7.36822H26.8171ZM7.08218 15.4273C7.08218 15.6889 6.98599 15.9504 6.79361 16.1466C6.60123 16.3428 6.36076 16.4409 6.08822 16.4409C5.81568 16.4409 5.57521 16.3428 5.38283 16.1466C5.19045 15.9504 5.09426 15.7052 5.09426 15.4273V11.3896C5.09426 11.1281 5.19045 10.8665 5.38283 10.6703C5.57521 10.4742 5.81568 10.3761 6.08822 10.3761C6.36076 10.3761 6.60123 10.4742 6.79361 10.6703C6.98599 10.8665 7.08218 11.1117 7.08218 11.3896V15.4273ZM18.7051 11.6839C18.2562 12.1416 17.9997 12.7628 17.9997 13.4166C17.9997 14.0705 18.2562 14.6917 18.7051 15.1494C19.154 15.6072 19.7632 15.8687 20.4045 15.8687H24.4124V10.9646H20.4045C19.7632 10.9646 19.154 11.2261 18.7051 11.6839ZM21.0778 12.9589C21.158 13.0897 21.2061 13.2532 21.2061 13.4166C21.2061 13.6292 21.1259 13.8417 20.9656 13.9888C20.8053 14.1359 20.6129 14.234 20.4045 14.234C20.2442 14.234 20.0838 14.185 19.9556 14.1032C19.8273 14.0215 19.7151 13.8907 19.667 13.7436C19.6029 13.5965 19.5869 13.433 19.6189 13.2695C19.651 13.1061 19.7312 12.9589 19.8434 12.8445C19.9556 12.7301 20.0999 12.6483 20.2602 12.6156C20.4205 12.5829 20.5808 12.6156 20.7251 12.6647C20.8694 12.7301 20.9977 12.8282 21.0778 12.9589Z" fill="currentColor"/>
</g>
</svg>
